<svg xmlns="http://www.w3.org/2000/svg" viewBox="0 0 25 25"><defs><style>.cls-1{fill:none;stroke:#000;stroke-miterlimit:10;}</style></defs><title>place-icons</title><g id="圖層_2" data-name="圖層 2"><path class="cls-1" d="M21.38,8.1a8.64,8.64,0,0,0-2.19-4.6A8.81,8.81,0,0,0,11.1.6,8.35,8.35,0,0,0,6.49,2.81a8.73,8.73,0,0,0-2.77,8.57,15.94,15.94,0,0,0,2.12,5,40.91,40.91,0,0,0,6.26,7.85c.32.32.47.32.78,0a45.29,45.29,0,0,0,3.75-4.21,28.51,28.51,0,0,0,3.8-6.13A11.63,11.63,0,0,0,21.5,9.29C21.47,9,21.45,8.56,21.38,8.1Zm-8.87,5.52a4.13,4.13,0,1,1,4.11-4.1A4.14,4.14,0,0,1,12.51,13.62Z"/></g></svg>