<svg xmlns="http://www.w3.org/2000/svg" viewBox="0 0 25 23.48"><defs><style>.cls-1{fill:none;stroke:#231815;stroke-miterlimit:10;}</style></defs><title>place-icons</title><g id="圖層_2" data-name="圖層 2"><path class="cls-1" d="M19.19,23a8.58,8.58,0,0,1-3.13-.68A29.57,29.57,0,0,1,3.35,11.56,13.57,13.57,0,0,1,1.26,7.25a6.54,6.54,0,0,1,0-3.94,5.16,5.16,0,0,1,1.53-2.2A2.5,2.5,0,0,1,4.36.5,1.25,1.25,0,0,1,5.43,1l3,4.07,0,0A1.21,1.21,0,0,1,8.36,7L7.42,8a1.71,1.71,0,0,0-.18,2.33,26.21,26.21,0,0,0,1.89,2.32,26.14,26.14,0,0,0,3.94,3.56,7.85,7.85,0,0,0,1.28.76,1.69,1.69,0,0,0,2-.39c.29-.29.56-.6.86-.89s.5-.42.76-.62a.57.57,0,0,1,.68,0c.57.34,1.15.68,1.71,1.05,1,.65,2,1.33,3,2a1.33,1.33,0,0,1,.62,1.75,4.17,4.17,0,0,1-2.86,2.77C20.47,22.8,19.82,22.86,19.19,23Z"/></g></svg>