<svg xmlns="http://www.w3.org/2000/svg" viewBox="0 0 21.64 25"><defs><style>.cls-1{fill:none;stroke:#000;stroke-miterlimit:10;}</style></defs><title>icon</title><g id="圖層_2" data-name="圖層 2"><path class="cls-1" d="M10.81,24.49H2.52a1.92,1.92,0,0,1-2-2.07A7.22,7.22,0,0,1,.63,21a8.49,8.49,0,0,1,6.45-6.87,7.31,7.31,0,0,1,1.81-.24c1.29,0,2.59,0,3.89,0a8.63,8.63,0,0,1,8.13,6.66,15.35,15.35,0,0,1,.22,1.79A2,2,0,0,1,19,24.5C16.29,24.46,13.55,24.49,10.81,24.49Z"/><path class="cls-1" d="M17.24,7.13A6.42,6.42,0,1,1,4.41,6.68a6.42,6.42,0,0,1,12.83.45Z"/></g></svg>