<svg xmlns="http://www.w3.org/2000/svg" viewBox="0 0 21.29 25"><defs><style>.cls-1{fill:none;stroke:#000;stroke-miterlimit:10;}</style></defs><title>icon</title><g id="圖層_2" data-name="圖層 2"><path class="cls-1" d="M16.2,6.35h1.42a2.08,2.08,0,0,1,2.19,2.1c.08,1.44.2,2.88.31,4.32s.19,2.75.29,4.13.21,2.87.31,4.31a7.85,7.85,0,0,1,0,1.53A2,2,0,0,1,18.7,24.5h-16A2,2,0,0,1,.59,23a3.06,3.06,0,0,1-.08-1c.11-1.75.24-3.5.37-5.25l.42-5.73c.06-.89.13-1.77.18-2.66a2.07,2.07,0,0,1,2.13-2H5.1A5.14,5.14,0,0,1,6.94,1.86,5.58,5.58,0,0,1,10.64.5a5.41,5.41,0,0,1,4,1.74A5.53,5.53,0,0,1,16.2,6.35Zm-9.34,0h7.56a3.79,3.79,0,1,0-7.56,0Z"/></g></svg>