<svg xmlns="http://www.w3.org/2000/svg" viewBox="0 0 197 62.12"><defs><style>.cls-1{fill:#231815;}</style></defs><title>logo</title><g id="圖層_1" data-name="圖層 1"><path class="cls-1" d="M103.73,61.92V56.06h3.34v.56H104.4v1.93h2.25v.57H104.4v2.24h2.76v.56Z"/><path class="cls-1" d="M112.41,62a2.65,2.65,0,0,1-2-.87l.39-.46a2.26,2.26,0,0,0,1.5.75h.14a1.26,1.26,0,0,0,1.16-.51,1,1,0,0,0-.34-1.31,2.8,2.8,0,0,0-.53-.27l-.84-.37a1.83,1.83,0,0,1-1.15-1.11,1.58,1.58,0,0,1,0-.38,1.38,1.38,0,0,1,.64-1.19,2,2,0,0,1,1.17-.34,2.26,2.26,0,0,1,1.63.64l.08.08-.36.43a1.9,1.9,0,0,0-1.35-.56,1.06,1.06,0,0,0-1,.47.78.78,0,0,0-.11.42,1,1,0,0,0,.6.85l.37.17.85.36a2,2,0,0,1,1.07.87,1.58,1.58,0,0,1,.15.69,1.49,1.49,0,0,1-.66,1.27A2.24,2.24,0,0,1,112.41,62Z"/><path class="cls-1" d="M119.17,61.92v-5.3h-1.79v-.56h4.25v.56h-1.79v5.3Z"/><path class="cls-1" d="M125.35,62a.44.44,0,0,1-.44-.28.59.59,0,0,1,0-.23.5.5,0,0,1,.29-.49.65.65,0,0,1,.2,0,.47.47,0,0,1,.45.29.69.69,0,0,1,0,.24.46.46,0,0,1-.3.47A.51.51,0,0,1,125.35,62Z"/><path class="cls-1" d="M129.19,61.92v-.39a8.08,8.08,0,0,0,2.62-3.26,2,2,0,0,0,.08-.58,1.1,1.1,0,0,0-.57-1.09,1.32,1.32,0,0,0-.53-.11,1.71,1.71,0,0,0-1.25.7l-.39-.37a2.33,2.33,0,0,1,1.51-.85h.2a1.54,1.54,0,0,1,1.43.73,1.9,1.9,0,0,1,.25,1,4.57,4.57,0,0,1-1.5,2.87c-.25.27-.54.56-.86.86.31,0,.63,0,1,0h1.68v.56Z"/><path class="cls-1" d="M137.83,62a1.59,1.59,0,0,1-1.55-1.24A5.55,5.55,0,0,1,136,59q0-2.22,1-2.82a1.48,1.48,0,0,1,.76-.19,1.59,1.59,0,0,1,1.55,1.3,5.66,5.66,0,0,1,.23,1.71q0,2.22-1,2.85A1.51,1.51,0,0,1,137.83,62Zm0-.52c.5,0,.84-.39,1-1.16A6.07,6.07,0,0,0,139,59c0-1.37-.27-2.17-.82-2.41a.71.71,0,0,0-.32-.07c-.49,0-.83.36-1,1.06a5.73,5.73,0,0,0-.16,1.42c0,1.34.27,2.15.79,2.43A.76.76,0,0,0,137.83,61.5Z"/><path class="cls-1" d="M142.77,61.92v-.39a8.08,8.08,0,0,0,2.62-3.26,2,2,0,0,0,.09-.58,1.1,1.1,0,0,0-.57-1.09,1.33,1.33,0,0,0-.54-.11,1.71,1.71,0,0,0-1.25.7l-.39-.37a2.33,2.33,0,0,1,1.51-.85h.2a1.53,1.53,0,0,1,1.43.73,1.9,1.9,0,0,1,.25,1,4.6,4.6,0,0,1-1.49,2.87c-.26.27-.55.56-.87.86.31,0,.63,0,1,0h1.68v.56Z"/><path class="cls-1" d="M151.3,62a2.43,2.43,0,0,1-1.85-.79l.33-.43a2,2,0,0,0,1.39.68h.09a1.17,1.17,0,0,0,1.05-.5,1.14,1.14,0,0,0,.18-.64c0-.8-.63-1.2-1.86-1.21v-.51c1.07,0,1.62-.42,1.64-1.16a.89.89,0,0,0-.52-.88,1.59,1.59,0,0,0-.5-.1,1.75,1.75,0,0,0-1.23.59l-.36-.42a2.41,2.41,0,0,1,1.61-.7,1.64,1.64,0,0,1,1.42.62,1.36,1.36,0,0,1,.25.83,1.4,1.4,0,0,1-.87,1.36l-.18.07v0a1.53,1.53,0,0,1,1.07.77,1.48,1.48,0,0,1,.18.72,1.54,1.54,0,0,1-.72,1.36A2.09,2.09,0,0,1,151.3,62Z"/><path class="cls-1" d="M39.85,62V56.16h1.63c1.37,0,2.1.51,2.17,1.53a1,1,0,0,1,0,.18,1.58,1.58,0,0,1-1.13,1.64,3.23,3.23,0,0,1-1,.14h-1V62Zm.67-2.91h.9c.84,0,1.35-.26,1.51-.77a1.41,1.41,0,0,0,.07-.47,1,1,0,0,0-.7-1.06,3.3,3.3,0,0,0-.92-.11h-.86Z"/><path class="cls-1" d="M47.26,62V56.16H50.6v.57H47.93v1.92h2.25v.57H47.93v2.24h2.76V62Z"/><path class="cls-1" d="M58.3,62h-.74L56.1,59.49H55V62h-.67V56.16h1.8c1.34,0,2,.56,2,1.63a1.51,1.51,0,0,1-1,1.54l-.32.1ZM55,56.7V59h1c1,0,1.45-.4,1.46-1.16a1,1,0,0,0-.87-1A2.61,2.61,0,0,0,56,56.7Z"/><path class="cls-1" d="M61.75,62V56.16h3.33v.57H62.41v2.06h2.26v.56H62.41V62Z"/><path class="cls-1" d="M70.57,62.12a1.84,1.84,0,0,1-2-1.62,4.54,4.54,0,0,1-.08-.85V56.16h.67v3.49c0,1.25.49,1.88,1.41,1.9s1.3-.48,1.41-1.43a3.48,3.48,0,0,0,0-.47V56.16h.63v3.49c0,1.47-.55,2.28-1.66,2.44A2.73,2.73,0,0,1,70.57,62.12Z"/><path class="cls-1" d="M76.64,62V56.16h.82l1.15,3.21c0,.13.12.34.22.62s.16.49.21.63h0c.07-.2.2-.61.41-1.25l1.14-3.21h.82V62h-.62V58.64c0-.28,0-.84.08-1.7h0l-.46,1.33-1.15,3.15h-.46l-1.15-3.15-.46-1.33h0c0,.86.07,1.43.07,1.7V62Z"/><path class="cls-1" d="M85.47,62V56.16h3.34v.57H86.14v1.92h2.25v.57H86.14v2.24H88.9V62Z"/></g><g id="圖層_2" data-name="圖層 2"><path d="M12.19,10l-.11-.4L2,39.1H0v.81H5V39.1H2.82l9.61-28V11Z"/><polygon points="17.96 0.58 17.93 0.5 13.42 0.5 15.57 6.27 22.17 24.17 16.75 24.17 16.74 24.92 22.48 24.92 27.7 39.1 25.66 39.1 25.66 39.91 34.45 39.91 34.45 39.1 32.32 39.1 17.96 0.58"/><path d="M174.44,10l-.1-.4L164.28,39.1h-2v.81h5V39.1h-2.15l9.61-28V11C174.62,10.67,174.53,10.33,174.44,10Z"/><polygon points="194.86 39.1 180.5 0.58 180.47 0.5 175.96 0.5 178.12 6.27 184.72 24.17 179.29 24.17 179.29 24.92 185.02 24.92 190.25 39.1 188.21 39.1 188.21 39.91 197 39.91 197 39.1 194.86 39.1"/><path d="M48.8,22.82h-.49v.81h2c.53,0,1-.06,1.54-.1s1-.08,1.52-.14l.82-.11c.38-.05.75-.11,1.12-.18l1.07-.21,1-.26c.33-.09.66-.19,1-.3s.64-.22.94-.34.59-.24.88-.37.58-.28.84-.42.53-.3.78-.46.5-.33.73-.5.46-.35.68-.54l.61-.58c.2-.21.39-.42.56-.63s.34-.44.5-.67.3-.47.43-.71.26-.5.37-.76.21-.52.3-.8a7.39,7.39,0,0,0,.23-.84c.07-.28.12-.57.17-.88s.07-.61.09-.93,0-.52,0-.79C66.54,4.62,60.24.5,48.8.5H39.23v.81H41.8V39.1H39.23v.81h9.7V39.1H46.3V1.31h2.5c8.79,0,13.25,3.63,13.25,10.79S57.59,22.82,48.8,22.82Z"/><path d="M68.13,29.24c-.81,3.9-3.55,6.84-6.37,6.84-3.21,0-5.87-3.66-7.31-10l0-.13-.26.08-.31.09-.22.05,0,.12c1.91,9.29,5.29,14,10,14a5.73,5.73,0,0,0,4.44-2.36v2h.73V29.14h-.71Z"/><path d="M95,0a18.93,18.93,0,0,0-5,.69l-.13,0L90,1l.12.33,0,.11.12,0A13,13,0,0,1,93.52,1c6.81,0,13.13,5.87,15.72,14.62,3.51,12-1.13,19.92-7.29,22.46l-.11,0,.31.69.11,0c7.64-2.86,12.38-10,12.38-18.61C114.64,9,105.84,0,95,0Z"/><path d="M98,39a12.75,12.75,0,0,1-2.55.25c-6.8,0-13.09-5.88-15.67-14.62-2.71-9.2-.37-17.92,5.83-21.72l.1-.06-.06-.1-.27-.54-.06-.11-.11.06a20.16,20.16,0,0,0-10.83,18A19.59,19.59,0,0,0,98.26,39.72l.14,0L98.13,39Z"/><path d="M127.53.56l0-.06h-5.08l2.33,3.66,15.84,24.73,0,.06h.79l1.78-3.21,0-.06,0-.06C143.11,25.49,129.12,3.11,127.53.56Z"/><path d="M123.53,11.42v-.05l0,0-.54-.73-.23-.31,0,28.8h-3v.81h6.75V39.1h-3Z"/><path d="M144.84,21.23l0,.05.11.22.19.42.1.23L155.86,3V39.1h-2.68v.81h9.7V39.1H160.3V1.31h2.58V.5h-6.54Z"/><path d="M94.25,20.88l-1,1.2,0,0,1.21-1c.05.38.1.7.13,1l.18,2.34a.67.67,0,0,0,.06.12h0c.07-1.14.15-2.29.33-3.47l1.21,1,0,0-1-1.17,0-.06,2.14-.21c.37,0,.75-.05,1.13-.08a.44.44,0,0,0,.15,0v0l-3.42-.32,0-.07,1-1.16,0,0-1.17,1-.07,0c-.1-1.14-.21-2.28-.31-3.41h-.07c-.08,1.14-.15,2.28-.34,3.46l-1.19-1,0,0c.32.39.65.77,1,1.2-1.18.18-2.32.25-3.47.37C91.93,20.63,93.07,20.69,94.25,20.88Z"/></g></svg>